<?xml version="1.0" encoding="UTF-8"?>
<svg version="1.1" xmlns="http://www.w3.org/2000/svg" width="1536" height="1024">
<path d="M0 0 C506.88 0 1013.76 0 1536 0 C1536 337.92 1536 675.84 1536 1024 C1029.12 1024 522.24 1024 0 1024 C0 686.08 0 348.16 0 0 Z " fill="#F6F6F6" transform="translate(0,0)"/>
<path d="M0 0 C1.18064026 0.00031723 1.18064026 0.00031723 2.38513184 0.00064087 C13.64911256 0.03077603 24.36572264 0.53124486 35.22851562 3.78955078 C37.20911548 4.38145986 39.19923582 4.89552921 41.203125 5.40234375 C56.47317311 9.47659313 70.97729272 17.41075785 83.1875 27.375 C83.73744629 27.81569824 84.28739258 28.25639648 84.85400391 28.71044922 C110.37198892 49.2598383 126.33919583 78.76971858 130.1875 111.375 C130.60261375 117.33605454 130.58031017 123.30276127 130.52368164 129.27514648 C130.49999292 131.93829588 130.50316197 134.60044276 130.50976562 137.26367188 C130.48924317 150.48932089 129.84714356 163.54606964 125.8125 176.25 C125.48161377 177.32447388 125.48161377 177.32447388 125.14404297 178.4206543 C123.51500483 183.5969436 121.71948115 188.56423582 119.1875 193.375 C118.73117187 194.28121094 118.27484375 195.18742188 117.8046875 196.12109375 C108.4086005 213.57421186 92.97711586 226.99017908 74.1875 233.375 C73.28902344 233.68050781 72.39054688 233.98601562 71.46484375 234.30078125 C62.38313362 237.19103892 53.95517443 237.5145971 44.47265625 237.47265625 C42.65633949 237.47053383 42.65633949 237.47053383 40.80332947 237.46836853 C36.95219406 237.46279026 33.10111771 237.4502417 29.25 237.4375 C26.6321623 237.43248219 24.01432369 237.42791978 21.39648438 237.42382812 C14.99346958 237.41282794 8.59048901 237.39611144 2.1875 237.375 C2.11751404 229.2549887 2.06444514 221.13510667 2.03206348 213.01486683 C2.01650984 209.24295595 1.9954641 205.47125373 1.96118164 201.69946289 C1.92821519 198.0489724 1.91056989 194.39868064 1.90286827 190.7480526 C1.89739075 189.36601324 1.886698 187.98398284 1.87030983 186.6020298 C1.65792194 167.92294269 6.04728515 151.62469534 19.30859375 137.91796875 C33.65025777 125.24982319 48.95329155 121.47476901 67.63085938 120.1640625 C69.04915039 120.05191406 69.04915039 120.05191406 70.49609375 119.9375 C71.35001709 119.87691406 72.20394043 119.81632812 73.08374023 119.75390625 C75.39951993 119.54335997 75.39951993 119.54335997 77.1875 117.375 C77.35437448 114.79145782 77.35437448 114.79145782 77.1875 112.375 C74.5709807 111.06674035 72.1522798 111.18668532 69.27197266 111.08496094 C48.15028518 110.3363006 29.94732774 104.19582647 15.03515625 88.640625 C9.74741411 82.15671286 5.47311658 74.44760325 3.1875 66.375 C2.89939453 65.38113281 2.89939453 65.38113281 2.60546875 64.3671875 C0.91686781 57.39411599 0.8238641 50.2989039 0.70458984 43.15527344 C0.67961426 42.3099707 0.65463867 41.46466797 0.62890625 40.59375 C0.60872437 39.4480957 0.60872437 39.4480957 0.58813477 38.27929688 C0.33364236 35.96685428 0.33364236 35.96685428 -2.8125 34.375 C-5.95471967 34.69006627 -5.95471967 34.69006627 -8.8125 35.375 C-8.82651855 36.2568396 -8.82651855 36.2568396 -8.84082031 37.15649414 C-9.28010823 59.23932548 -12.34170687 77.32944249 -28.8125 93.375 C-44.67110125 107.93698605 -63.36796934 109.54215555 -83.7578125 109.47265625 C-85.38019771 109.47078758 -87.0025835 109.4693658 -88.62496948 109.46836853 C-92.86305339 109.46457866 -97.10110218 109.45477916 -101.33917236 109.44366455 C-105.67663091 109.4333739 -110.01409522 109.42885462 -114.3515625 109.42382812 C-122.83855765 109.41315319 -131.32552444 109.39611998 -139.8125 109.375 C-139.33692877 107.28654636 -138.85962763 105.19848659 -138.3815918 103.1105957 C-138.11597946 101.94776566 -137.85036713 100.78493561 -137.57670593 99.58686829 C-132.0516363 76.36564588 -119.11712904 57.30859099 -102.8125 40.375 C-101.75675781 39.20710938 -101.75675781 39.20710938 -100.6796875 38.015625 C-93.99774914 30.85096105 -86.02119646 25.62187775 -77.8125 20.375 C-77.21244141 19.98892578 -76.61238281 19.60285156 -75.99414062 19.20507812 C-67.32644519 13.71064068 -58.53005639 10.12032875 -48.80078125 7.015625 C-46.99364235 6.43336414 -45.19905145 5.81251335 -43.40625 5.1875 C-29.33371556 0.45021118 -14.71442034 -0.03682697 0 0 Z " fill="#566CEC" transform="translate(234.8125,367.625)"/>
<path d="M0 0 C10.27524869 -0.04645882 20.55047215 -0.08193785 30.82580471 -0.10362434 C35.59769351 -0.11403579 40.36951014 -0.12814656 45.14135742 -0.15087891 C49.75142686 -0.17270169 54.36142713 -0.18458845 58.97154427 -0.18975449 C60.72529246 -0.19343336 62.47903712 -0.20061707 64.23275566 -0.21146011 C82.83364951 -0.32183318 99.95396074 2.9931437 114.21875 16.02734375 C129.03256025 31.78126119 132.37522543 50.01455176 132.1953125 70.95703125 C132.1924826 72.22600754 132.18965271 73.49498383 132.18673706 74.80241394 C132.17752987 78.12814477 132.15965633 81.45358464 132.1373291 84.77923584 C132.11663518 88.19199144 132.10768574 91.60477747 132.09765625 95.01757812 C132.07575316 101.67846361 132.04239568 108.33921507 132 115 C119.37783908 115.04641448 106.75569858 115.08191551 94.13346958 115.10362434 C88.27197306 115.11404538 82.41053509 115.12817393 76.54907227 115.15087891 C70.88861964 115.17266713 65.2282232 115.18458126 59.56773186 115.18975449 C57.41206923 115.19343951 55.25640955 115.20063537 53.10077095 115.21146011 C50.07305466 115.22605443 47.04556828 115.22797462 44.01782227 115.22705078 C43.13380737 115.23424133 42.24979248 115.24143188 41.33898926 115.24884033 C29.40331556 115.20963281 19.07170121 112.11093445 10.1875 103.875 C5.71983942 99.14685745 3.20666051 94.07053193 1 88 C0.65494919 87.10634735 0.30989838 86.2126947 -0.04560852 85.29196167 C-1.11800559 81.59296591 -1.24721496 78.50218577 -1.24291992 74.65283203 C-1.24481827 73.94304199 -1.24671661 73.23325195 -1.24867249 72.50195312 C-1.25235762 70.1704582 -1.24170553 67.83927946 -1.23046875 65.5078125 C-1.22927517 63.87645504 -1.22882417 62.24509689 -1.2290802 60.61373901 C-1.22751904 57.1993172 -1.21925954 53.78500077 -1.20581055 50.37060547 C-1.18884844 46.01083596 -1.18499576 41.65118238 -1.18575573 37.29138374 C-1.1854827 33.92319651 -1.17997984 30.55503421 -1.17275429 27.18685532 C-1.169589 25.58022119 -1.16760526 23.97358425 -1.16686058 22.36694717 C-1.16467257 20.11323573 -1.15587535 17.85964266 -1.14526367 15.60595703 C-1.14145187 14.3272171 -1.13764008 13.04847717 -1.13371277 11.73098755 C-0.99116201 7.75339367 -0.54874757 3.9398005 0 0 Z " fill="#556CEB" transform="translate(93,490)"/>
<path d="M0 0 C63.39534884 0 63.39534884 0 77 12 C82.85151453 18.3834704 83.51962467 26.22318002 83.37109375 34.5234375 C82.50366572 42.64986851 78.04189211 47.49956364 71.96484375 52.58984375 C68.35742505 55.17886592 66.55643608 56 62 56 C62 56.66 62 57.32 62 58 C63.2065625 57.8453125 63.2065625 57.8453125 64.4375 57.6875 C71.34624863 58.29353058 76.38392501 61.98716121 80.9375 67.0625 C86.66195412 73.89665918 87.74657455 81.26648642 87 90 C85.46638634 98.94842467 80.9812701 106.02582227 73.9375 111.75 C49.85904174 125.509119 30.54523484 119 0 119 C0 79.73 0 40.46 0 0 Z " fill="#0C206C" transform="translate(942,424)"/>
<path d="M0 0 C3.17462578 2.50527697 6.13421088 5.14805527 9 8 C9.33 4.7 9.66 1.4 10 -2 C17.26 -2 24.52 -2 32 -2 C32.04530644 8.51876172 32.0819481 19.03745791 32.10362434 29.55629539 C32.11403138 34.44137594 32.12813396 39.32638587 32.15087891 44.21142578 C32.17271758 48.93172519 32.18459176 53.65195695 32.18975449 58.37230301 C32.19343054 60.16709074 32.20060861 61.96187506 32.21146011 63.75663376 C32.30206002 79.37181389 31.46962696 93.60058462 21.1484375 106.2734375 C16.19735615 110.93927137 10.2572023 113.50273092 4 116 C2.72382812 116.54333984 2.72382812 116.54333984 1.421875 117.09765625 C-12.70861516 122.36240339 -32.08204235 119.29673926 -45.35546875 113.30859375 C-48.66786629 111.66951964 -51.85004082 109.9329295 -55 108 C-53.51095825 104.10391502 -51.75621287 100.40902982 -49.875 96.6875 C-49.06675781 95.08455078 -49.06675781 95.08455078 -48.2421875 93.44921875 C-47.62730469 92.23685547 -47.62730469 92.23685547 -47 91 C-42.90948847 91.68528432 -39.9373291 92.95625255 -36.35546875 94.96484375 C-26.93415207 99.10522339 -14.65781414 99.86450805 -4.75 97.08984375 C1.52744481 94.18465724 4.35109829 90.54513868 7.25 84.3125 C8.33089562 79.53854433 8.15607725 74.87307859 8 70 C7.64550781 70.44730469 7.29101562 70.89460937 6.92578125 71.35546875 C0.99428935 78.09123073 -6.43134317 81.24245003 -15.2734375 82.4453125 C-25.62543109 82.8212929 -36.1738534 80.46995252 -44.2265625 73.69140625 C-50.14282834 68.04880028 -54.19785036 62.72915208 -57 55 C-57.53560547 53.66001953 -57.53560547 53.66001953 -58.08203125 52.29296875 C-61.4215462 40.31334704 -59.73646007 25.54042957 -53.75 14.74609375 C-42.32155579 -1.84463065 -18.58725498 -12.25681306 0 0 Z " fill="#0D216C" transform="translate(1314,462)"/>
<path d="M0 0 C7.59 0 15.18 0 23 0 C23 40.26 23 80.52 23 122 C15.74 122 8.48 122 1 122 C0.67 118.7 0.34 115.4 0 112 C-0.928125 113.051875 -1.85625 114.10375 -2.8125 115.1875 C-10.31622212 122.48360926 -17.80674416 124.4804992 -28.0625 124.5625 C-40.51375673 124.36010562 -49.05357726 120.90131473 -58 112 C-66.17562867 102.24552143 -69.84304872 89.55875151 -69.31640625 76.90234375 C-67.78961534 62.89733578 -62.00726518 51.91482979 -51 43 C-40.51024565 36.63013468 -28.8868439 35.05842986 -16.87109375 37.68359375 C-11.411428 39.74271651 -6.18691741 42.90664499 -2 47 C-2 47.66 -2 48.32 -2 49 C-1.34 49 -0.68 49 0 49 C0 32.83 0 16.66 0 0 Z " fill="#0C206B" transform="translate(1217,421)"/>
<path d="M0 0 C8.25 0 16.5 0 25 0 C25 15.18 25 30.36 25 46 C41.5 46 58 46 75 46 C75 30.82 75 15.64 75 0 C83.25 0 91.5 0 100 0 C100 39.27 100 78.54 100 119 C91.75 119 83.5 119 75 119 C75 101.84 75 84.68 75 67 C58.5 67 42 67 25 67 C25 84.16 25 101.32 25 119 C16.75 119 8.5 119 0 119 C0 79.73 0 40.46 0 0 Z " fill="#0D226F" transform="translate(421,424)"/>
<path d="M0 0 C7.59 0 15.18 0 23 0 C23.33 16.17 23.66 32.34 24 49 C26.31 46.36 28.62 43.72 31 41 C39.34881081 36.22925096 48.56611545 35.55383145 58 37 C66.00129358 39.43594938 72.55812692 43.83568858 77 51 C79.85259612 57.34145904 81.12890412 63.86424198 81.11352539 70.80004883 C81.11341209 72.51125664 81.11341209 72.51125664 81.11329651 74.2570343 C81.10555458 76.08853279 81.10555458 76.08853279 81.09765625 77.95703125 C81.0962413 79.21513107 81.09482635 80.4732309 81.09336853 81.76945496 C81.08872573 85.10178529 81.07975228 88.43404632 81.06866455 91.76635742 C81.05840503 95.17170617 81.05386121 98.5770621 81.04882812 101.98242188 C81.03780829 108.65496945 81.02054835 115.32747524 81 122 C73.08 122 65.16 122 57 122 C56.95101562 118.31585937 56.90203125 114.63171875 56.8515625 110.8359375 C56.7975281 107.26151524 56.74023017 103.68715913 56.68261719 100.11279297 C56.64437209 97.63172346 56.60951147 95.15059935 56.578125 92.66943359 C56.53237798 89.09973661 56.47439831 85.53041406 56.4140625 81.9609375 C56.40251129 80.85446869 56.39096008 79.74799988 56.37905884 78.60800171 C56.266299 69.58950754 56.266299 69.58950754 52.1875 61.75 C47.7886919 58.23095352 43.73552024 57.54593803 38.2109375 57.68359375 C33.56059657 58.3491019 30.82293707 61.10848484 27.75 64.4375 C24.90954069 68.59674399 23.75748177 72.13245026 23.68115234 77.1574707 C23.66128265 78.15813065 23.64141296 79.15879059 23.62094116 80.18977356 C23.60938995 81.2576561 23.59783875 82.32553864 23.5859375 83.42578125 C23.56657135 84.52850876 23.5472052 85.63123627 23.5272522 86.76737976 C23.46757077 90.28234166 23.42111625 93.79733651 23.375 97.3125 C23.33680974 99.69858183 23.2977574 102.08465003 23.2578125 104.47070312 C23.16025935 110.31373034 23.0805984 116.15661591 23 122 C15.41 122 7.82 122 0 122 C0 81.74 0 41.48 0 0 Z " fill="#0C206C" transform="translate(842,421)"/>
<path d="M0 0 C1.00353516 -0.020625 2.00707031 -0.04125 3.04101562 -0.0625 C13.47757939 -0.11682174 21.73888933 2.51438884 29.8125 9.25 C38.33275614 18.21575973 39.25072903 27.23120805 39.10546875 39.15625 C39.09986317 40.49002604 39.09559763 41.82380831 39.09260559 43.15759277 C39.08123227 46.6429189 39.05183169 50.12786112 39.01849365 53.61303711 C38.9876291 57.17947193 38.9740655 60.74596969 38.95898438 64.3125 C38.9269532 71.29183885 38.87424828 78.27086138 38.8125 85.25 C31.8825 85.25 24.9525 85.25 17.8125 85.25 C17.3175 80.795 17.3175 80.795 16.8125 76.25 C16.29300781 76.72050781 15.77351562 77.19101562 15.23828125 77.67578125 C5.05480021 86.76750277 -2.63979204 87.98366302 -16.046875 87.42041016 C-23.71703811 86.80980639 -29.36141112 83.16074623 -34.4921875 77.59375 C-38.7603009 71.69313239 -41.1301772 64.52208123 -40.1875 57.25 C-38.403859 49.47058118 -35.14706267 44.03737279 -28.375 39.5625 C-17.66252006 33.32358378 -7.2968364 33.0876679 4.875 33.1875 C5.93138672 33.19201172 6.98777344 33.19652344 8.07617188 33.20117188 C10.65500908 33.21284082 13.23372294 33.22921115 15.8125 33.25 C15.54126879 31.79992001 15.25600671 30.3524597 14.96484375 28.90625 C14.80749756 28.09994141 14.65015137 27.29363281 14.48803711 26.46289062 C13.48912331 23.19069883 11.70169629 21.94123685 8.8125 20.25 C0.06929641 17.3355988 -11.87195863 18.47916229 -20.1875 22.25 C-22.54814677 23.54140154 -24.86600363 24.88805546 -27.1875 26.25 C-28.52880761 23.98354942 -29.86066234 21.71239903 -31.1875 19.4375 C-31.5690625 18.79490234 -31.950625 18.15230469 -32.34375 17.49023438 C-35.1875 12.58984375 -35.1875 12.58984375 -35.1875 9.25 C-28.68072999 5.74741955 -22.34124124 3.10746264 -15.1875 1.25 C-14.58687744 1.07726562 -13.98625488 0.90453125 -13.36743164 0.7265625 C-8.98816031 -0.23080536 -4.46449593 0.02250534 0 0 Z " fill="#0F236E" transform="translate(672.1875,457.75)"/>
<path d="M0 0 C9.32729867 7.62621346 14.04391563 15.30740944 15.75 27.25 C15.75 32.2 15.75 37.15 15.75 42.25 C-4.38 42.25 -24.51 42.25 -45.25 42.25 C-40.96210098 53.32328452 -40.96210098 53.32328452 -31.890625 59.27734375 C-21.79998227 62.67745163 -13.87368079 61.65961225 -4.25 57.25 C-2.15221821 56.01306094 -0.23081301 54.67212216 1.75 53.25 C2.41 53.25 3.07 53.25 3.75 53.25 C8.205 61.17 8.205 61.17 12.75 69.25 C8.24869031 73.75130969 8.24869031 73.75130969 5 74.91796875 C4.3090625 75.17126953 3.618125 75.42457031 2.90625 75.68554688 C2.1946875 75.93369141 1.483125 76.18183594 0.75 76.4375 C0.0384375 76.69724609 -0.673125 76.95699219 -1.40625 77.22460938 C-14.25126635 81.86175614 -31.1020279 82.81390086 -43.88671875 77.50390625 C-54.68664252 71.77369876 -63.31144305 62.33103162 -67.5 50.8125 C-70.01254151 39.30416255 -69.35966011 24.75264431 -63.625 14.31640625 C-57.10250609 4.51413557 -48.13400435 -3.7277507 -36.4206543 -6.38378906 C-23.65296528 -8.537825 -10.79056232 -7.49401482 0 0 Z " fill="#0F236E" transform="translate(605.25,464.75)"/>
<path d="M0 0 C9.10458056 6.85203989 14.3381166 14.21464382 17.26171875 25.234375 C17.26171875 31.174375 17.26171875 37.114375 17.26171875 43.234375 C-2.86828125 43.234375 -22.99828125 43.234375 -43.73828125 43.234375 C-40.0976451 53.05827694 -40.0976451 53.05827694 -32.73828125 59.234375 C-24.63309043 62.58824706 -14.3424754 62.87523143 -6.06640625 59.92578125 C-3.20537167 58.47084049 -0.47947118 56.90031703 2.26171875 55.234375 C3.25171875 54.904375 4.24171875 54.574375 5.26171875 54.234375 C6.22093597 55.98389068 7.17905692 57.73400744 8.13671875 59.484375 C8.67039062 60.45890625 9.2040625 61.4334375 9.75390625 62.4375 C10.25148438 63.36046875 10.7490625 64.2834375 11.26171875 65.234375 C11.85339844 66.30945313 11.85339844 66.30945313 12.45703125 67.40625 C13.26171875 69.234375 13.26171875 69.234375 13.26171875 72.234375 C0.30438013 82.5473588 -17.95291664 82.87377 -33.73828125 81.234375 C-38.17587187 80.3726176 -41.9254226 78.6549335 -45.73828125 76.234375 C-46.47691406 75.77675781 -47.21554687 75.31914063 -47.9765625 74.84765625 C-56.41588521 69.04661521 -61.69493394 61.97614504 -64.73828125 52.234375 C-64.96386719 51.52667969 -65.18945312 50.81898438 -65.421875 50.08984375 C-68.78077385 37.60400597 -67.2705065 25.21714182 -60.98828125 14.046875 C-54.98984566 4.70624537 -46.66703762 -2.12010941 -35.80932617 -5.3371582 C-23.97378053 -7.78574745 -10.19004978 -6.57047432 0 0 Z " fill="#0E226E" transform="translate(1426.73828125,463.765625)"/>
<path d="M0 0 C0 8.58 0 17.16 0 26 C7.59 26 15.18 26 23 26 C23 32.27 23 38.54 23 45 C15.41 45 7.82 45 0 45 C0.07422502 50.14200191 0.15725324 55.28233543 0.26245117 60.42358398 C0.29557767 62.17023899 0.32364737 63.91699788 0.34643555 65.66381836 C0.38020881 68.1838787 0.43253347 70.70299752 0.48828125 73.22265625 C0.49467117 73.99585709 0.5010611 74.76905792 0.50764465 75.56568909 C0.64563239 80.72599532 1.54103677 84.43055661 4 89 C7.11100727 91.07400485 7.78712691 91.254476 11.3125 91.1875 C12.05113281 91.18105469 12.78976562 91.17460938 13.55078125 91.16796875 C16.41047451 90.97184944 19.18062702 90.50854491 22 90 C22.08069658 92.95887459 22.14034665 95.9155659 22.1875 98.875 C22.21263672 99.71675781 22.23777344 100.55851563 22.26367188 101.42578125 C22.27333984 102.23144531 22.28300781 103.03710938 22.29296875 103.8671875 C22.3086792 104.61081543 22.32438965 105.35444336 22.34057617 106.12060547 C22.17199097 107.05090576 22.17199097 107.05090576 22 108 C18.30815408 110.46123062 15.3100229 110.71863352 11 111 C9.26363281 111.11601563 9.26363281 111.11601563 7.4921875 111.234375 C-1.82957478 111.57334817 -8.73792241 110.71347801 -15.8359375 104.35546875 C-22.4317249 97.2288009 -23.43955428 90.42583051 -23.29296875 81.03515625 C-23.28872391 80.00184677 -23.28447906 78.96853729 -23.28010559 77.90391541 C-23.26339394 74.62317178 -23.22575511 71.34305608 -23.1875 68.0625 C-23.17244348 65.83008703 -23.15875677 63.59766438 -23.14648438 61.36523438 C-23.11351493 55.90991654 -23.06178414 50.45506451 -23 45 C-27.95 45 -32.9 45 -38 45 C-38 38.73 -38 32.46 -38 26 C-33.05 26 -28.1 26 -23 26 C-23 18.74 -23 11.48 -23 4 C-15.625 2.5625 -15.625 2.5625 -13.30712891 2.11547852 C-2.59689399 0 -2.59689399 0 0 0 Z " fill="#0D216C" transform="translate(804,434)"/>
<path d="M0 0 C7.92 0 15.84 0 24 0 C24 40.26 24 80.52 24 122 C16.08 122 8.16 122 0 122 C0 81.74 0 41.48 0 0 Z " fill="#112570" transform="translate(730,421)"/>
<path d="M0 0 C0 6.6 0 13.2 0 20 C-2.000625 20.103125 -4.00125 20.20625 -6.0625 20.3125 C-12.99619233 20.86207605 -17.33308839 21.75736978 -22.75 26.3125 C-28.1410275 32.75178285 -28.46201931 38.20920024 -28.51171875 46.3046875 C-28.52966995 47.38380402 -28.54762115 48.46292053 -28.56611633 49.57473755 C-28.62012867 53.00811909 -28.6540867 56.44136231 -28.6875 59.875 C-28.720681 62.20835254 -28.75517138 64.54168685 -28.79101562 66.875 C-28.87830551 72.58335227 -28.93845402 78.29108025 -29 84 C-36.59 84 -44.18 84 -52 84 C-52 56.61 -52 29.22 -52 1 C-44.74 1 -37.48 1 -30 1 C-30 4.96 -30 8.92 -30 13 C-29.34 13 -28.68 13 -28 13 C-27.90976563 12.41347656 -27.81953125 11.82695312 -27.7265625 11.22265625 C-26.01493832 5.98655862 -20.1885669 2.68232544 -15.625 0.0625 C-10.75759956 -1.36415185 -4.70930891 -2.35465446 0 0 Z " fill="#0B206C" transform="translate(1097,459)"/>
<path d="M0 0 C7.59 0 15.18 0 23 0 C23 27.39 23 54.78 23 83 C15.41 83 7.82 83 0 83 C0 55.61 0 28.22 0 0 Z " fill="#0B1E6C" transform="translate(1110,460)"/>
<path d="M0 0 C5.73251262 2.56745739 9.91595629 7.07392473 12.66796875 12.671875 C14.84652223 19.47612424 14.54232198 28.03579496 11.55078125 34.5703125 C7.37827342 41.77304465 2.6011216 45.17939445 -5.4765625 47.34375 C-12.5936572 48.20270971 -18.56928123 46.04838737 -24.2265625 41.78125 C-29.07835905 37.26252873 -31.09081671 31.78477781 -31.8203125 25.27734375 C-32.08531811 16.45486538 -29.88075613 10.64905777 -24.26953125 3.921875 C-17.54857865 -1.9937347 -8.38068095 -2.22074826 0 0 Z " fill="#F3F3F4" transform="translate(1203.4765625,478.65625)"/>
<path d="M0 0 C5.52937324 4.56823474 8.59860961 8.37204841 9.40625 15.671875 C9.68763147 23.11123787 9.61541861 29.27518745 4.703125 35.30078125 C-0.46800026 40.46004613 -6.19264466 43 -13.48828125 43 C-20.26927407 42.50608854 -25.70168938 41.19384196 -30.75 36.375 C-35.29437879 30.27083442 -36.65145356 23.20823018 -36.41015625 15.70703125 C-35.34907659 8.7039055 -31.25170163 3.40642417 -25.73828125 -0.84375 C-18.06680924 -5.94657183 -7.71112477 -4.44872583 0 0 Z " fill="#F2F2F3" transform="translate(1314,481)"/>
<path d="M0 0 C3.25875 -0.061875 6.5175 -0.12375 9.875 -0.1875 C10.88030762 -0.21481201 11.88561523 -0.24212402 12.92138672 -0.27026367 C20.53997367 -0.33922694 27.51649409 0.75023576 34 4.9375 C37.05191205 8.0847843 37.88969606 9.85283897 38.3125 14.25 C37.84610266 19.84676813 36.66206421 24.19547314 32.8125 28.375 C25.76644537 32.44605378 18.40309479 32.25877018 10.5 32.125 C7.035 32.08375 3.57 32.0425 0 32 C0 21.44 0 10.88 0 0 Z " fill="#EFF0F2" transform="translate(966,491)"/>
<path d="M0 0 C3.3 -0.061875 6.6 -0.12375 10 -0.1875 C11.53527344 -0.22846802 11.53527344 -0.22846802 13.1015625 -0.27026367 C20.53160482 -0.3371168 26.17361856 0.58579919 32 5.5625 C34.68153615 10.17139027 34.91550804 13.78669035 34 19 C31.80055327 23.48035444 29.49868182 25.86312614 25 28 C21.94427963 28.94106158 19.20588826 29.11710907 16.015625 29.09765625 C15.17290039 29.09515869 14.33017578 29.09266113 13.46191406 29.09008789 C12.40198242 29.08098389 11.34205078 29.07187988 10.25 29.0625 C6.8675 29.041875 3.485 29.02125 0 29 C0 19.43 0 9.86 0 0 Z " fill="#EEEEF1" transform="translate(966,444)"/>
<path d="M0 0 C1.06992187 0.01353516 2.13984375 0.02707031 3.2421875 0.04101562 C5.87000964 0.07620967 8.49757104 0.13001168 11.125 0.1875 C11.125 3.4875 11.125 6.7875 11.125 10.1875 C10.465 10.1875 9.805 10.1875 9.125 10.1875 C8.898125 10.909375 8.67125 11.63125 8.4375 12.375 C6.20030082 17.16899825 3.10015277 19.99790205 -1.75 22 C-7.08736584 23.75241843 -11.26056074 23.72564642 -16.625 21.9375 C-21.4191989 19.35600829 -21.4191989 19.35600829 -22.875 16.1875 C-23.74470424 9.33857914 -23.74470424 9.33857914 -20.75 5.375 C-13.79489505 0.08307232 -8.49877515 -0.2040962 0 0 Z " fill="#ECEDF1" transform="translate(677.875,505.8125)"/>
<path d="M0 0 C3.40887367 2.76837549 6.09040698 5.40530069 6.93359375 9.83203125 C6.98557338 14.07703414 6.40688451 17.05448215 4.18359375 20.70703125 C-0.21831854 24.86439286 -4.65383388 25.386087 -10.5546875 25.2890625 C-14.7451271 24.52657193 -17.45747839 22.11114242 -20.06640625 18.83203125 C-21.42557999 14.75451003 -21.71330514 11.09138799 -21.06640625 6.83203125 C-19.37727248 3.50983455 -17.00089109 1.40310532 -13.81640625 -0.54296875 C-9.02730323 -1.63140125 -4.45156099 -2.51609969 0 0 Z " fill="#122770" transform="translate(1129.06640625,421.16796875)"/>
<path d="M0 0 C4.40874437 2.27736464 7.70757715 5.9095221 9.83203125 10.3515625 C10.32703125 13.3215625 10.32703125 13.3215625 10.83203125 16.3515625 C-2.03796875 16.3515625 -14.90796875 16.3515625 -28.16796875 16.3515625 C-24.78440711 6.20087757 -24.78440711 6.20087757 -21.16796875 3.3515625 C-20.48734375 2.7946875 -19.80671875 2.2378125 -19.10546875 1.6640625 C-13.85781371 -1.89080059 -5.93500222 -1.77515382 0 0 Z " fill="#F1F1F3" transform="translate(1411.16796875,475.6484375)"/>
<path d="M0 0 C4.71316237 4.60842542 5.00823496 6.05764474 6 13 C-6.87 13 -19.74 13 -33 13 C-29.23230641 1.69691923 -29.23230641 1.69691923 -23 -2 C-15.48925887 -5.30411422 -6.82340379 -4.49724341 0 0 Z " fill="#F3F3F4" transform="translate(593,479)"/>
<path d="M0 0 C4.31646551 2.28518762 7.0976625 4.45552709 9 9 C9.54480203 13.28058734 9.28013798 15.45009953 7.3125 19.3125 C3.94192204 23.22965817 1.59843097 23.79656333 -3.4375 24.4375 C-8.22048092 23.85011638 -9.66254597 22.41691722 -13 19 C-14.35728648 14.92814056 -14.6593499 11.25316911 -14 7 C-10.83132274 1.09084511 -6.51694052 -0.63891574 0 0 Z " fill="#596FED" transform="translate(336,360)"/>
<path d="M0 0 C0.66 0.33 1.32 0.66 2 1 C0.92173635 2.27513763 -0.16285519 3.54492569 -1.25 4.8125 C-1.85328125 5.52019531 -2.4565625 6.22789062 -3.078125 6.95703125 C-4.92370398 8.91889671 -6.79945332 10.45669625 -9 12 C-8.45015228 8.12488273 -6.72444669 6.40423494 -3.9375 3.75 C-3.20402344 3.04359375 -2.47054688 2.3371875 -1.71484375 1.609375 C-1.14894531 1.07828125 -0.58304688 0.5471875 0 0 Z " fill="#182C73" transform="translate(1271,465)"/>
<path d="M0 0 C-1.55500981 3.81684226 -4.03595495 6.19195732 -7 9 C-7.99 8.67 -8.98 8.34 -10 8 C-8.71451591 6.66070495 -7.42141845 5.32871357 -6.125 4 C-5.04605469 2.88625 -5.04605469 2.88625 -3.9453125 1.75 C-2 0 -2 0 0 0 Z " fill="#1F3275" transform="translate(1378,466)"/>
<path d="M0 0 C-1.5830577 4.2742558 -4.50568404 6.26531794 -8 9 C-7.53918323 4.85264908 -4.48412936 0 0 0 Z " fill="#132971" transform="translate(1078,462)"/>
<path d="M0 0 C0.66 0.33 1.32 0.66 2 1 C0.02 3.31 -1.96 5.62 -4 8 C-4.66 7.34 -5.32 6.68 -6 6 C-4.02 4.02 -2.04 2.04 0 0 Z " fill="#203378" transform="translate(873,462)"/>
</svg>
